#!OML:ASF F:\VICON\USERDATA\INSTALL\rory3\rory3.ASF
:FULLY-SPECIFIED
:DEGREES
587
root 4.89534 19.2904 7.34621 13.674 -6.6654 -6.67896
lowerback -0.346359 -1.82077 5.32727
upperback -6.48888 -2.10351 3.40894
thorax -6.64602 -1.24302 0.704549
lowerneck -9.60062 -9.92264 -11.0459
upperneck 20.3545 -12.2524 1.93532
head 8.76855 -6.4608 1.08277
rclavicle -8.93102e-014 4.05521e-014
rhumerus -43.6702 11.9308 -85.4151
rradius 52.5697
rwrist 6.19737
rhand -21.9513 -51.8825
rfingers 7.12502
rthumb 4.45575 -81.8156
lclavicle -8.93102e-014 4.05521e-014
lhumerus -44.8331 -14.8673 86.6347
lradius 57.8557
lwrist -2.98525
lhand -29.0876 -40.5479
lfingers 7.12502
lthumb -2.43636 -10.582
rfemur -94.825 13.8909 24.2987
rtibia 136.817
rfoot -4.41896 -13.6729
rtoes -1.79035
lfemur -14.1367 -1.08152 -21.6224
ltibia 7.22647
lfoot 18.4445 4.6488
ltoes -0.297146
588
root 4.88712 19.13 7.34133 13.9025 -6.70079 -6.63858
lowerback -0.571709 -1.7346 5.24751
upperback -6.35954 -2.01318 3.44827
thorax -6.36901 -1.18761 0.770135
lowerneck -9.88783 -9.99377 -10.7598
upperneck 20.1389 -12.305 1.69325
head 8.71329 -6.4794 0.944983
rclavicle 3.29711e-014 -3.20043e-014
rhumerus -43.3072 12.3909 -85.2229
rradius 52.7613
rwrist 6.0748
rhand -22.2293 -51.074
rfingers 7.12502
rthumb 4.18738 -81.0126
lclavicle 3.29711e-014 -3.20043e-014
lhumerus -44.7434 -14.7831 86.9947
lradius 57.9667
lwrist -2.70272
lhand -29.4966 -40.9473
lfingers 7.12502
lthumb -2.83129 -10.9864
rfemur -95.336 13.6503 24.0172
rtibia 136.824
rfoot -4.3534 -13.4575
rtoes -2.06729
lfemur -15.438 -1.04697 -21.7636
ltibia 9.4292
lfoot 18.5083 6.59072
ltoes -1.53945
589
root 4.87477 18.95 7.34428 13.9939 -6.71117 -6.6584
lowerback -0.790721 -1.66362 5.16968
upperback -6.12136 -1.94794 3.48865
thorax -5.98122 -1.14205 0.834058
lowerneck -10.2875 -10.1419 -10.5792
upperneck 19.9074 -12.4797 1.66528
head 8.70165 -6.54056 0.871502
rclavicle 4.02073e-015 -5.20816e-014
rhumerus -42.7563 12.7127 -84.9704
rradius 52.884
rwrist 6.03941
rhand -22.5323 -49.8261
rfingers 7.12502
rthumb 3.89479 -79.7703
lclavicle 4.02073e-015 -5.20816e-014
lhumerus -44.459 -14.8783 87.2769
lradius 57.9388
lwrist -2.67023
lhand -29.8521 -41.493
lfingers 7.12502
lthumb -3.17466 -11.5369
rfemur -95.7427 13.4828 23.8243
rtibia 136.916
rfoot -4.40672 -13.3826
rtoes -2.62779
lfemur -16.4359 -0.983679 -21.7242
ltibia 11.5898
lfoot 16.2425 7.18754
ltoes -8.39471
590
root 4.85187 18.7548 7.35139 14.1171 -6.75472 -6.71534
lowerback -0.941669 -1.63255 4.93288
upperback -6.07051 -1.92246 3.58814
thorax -5.82598 -1.11226 1.05984
lowerneck -10.3341 -10.1642 -10.4183
upperneck 19.675 -12.5181 1.62487
head 8.61819 -6.54752 0.833736
rclavicle -2.12482e-014 -8.94531e-015
rhumerus -42.6459 13.1351 -84.7653
rradius 53.2132
rwrist 5.94762
rhand -22.8075 -48.5066
rfingers 7.12502
rthumb 3.62899 -78.4555
lclavicle -2.12482e-014 -8.94531e-015
lhumerus -44.5548 -14.7937 87.5313
lradius 57.9827
lwrist -3.19312
lhand -29.9555 -41.753
lfingers 7.12502
lthumb -3.27445 -11.7984
rfemur -96.3824 13.4397 23.6438
rtibia 137.084
rfoot -4.27719 -13.386
rtoes -2.88005
lfemur -17.5579 -0.0496162 -21.7794
ltibia 14.0317
lfoot 12.1596 5.71593
ltoes -15.0572
591
root 4.83994 18.5674 7.35215 13.9311 -6.26419 -6.69582
lowerback -0.60695 -1.80225 4.88367
upperback -6.09654 -2.12189 3.6263
thorax -6.0466 -1.20992 1.15056
lowerneck -10.0444 -10.1212 -10.246
upperneck 19.2198 -12.516 1.65614
head 8.40042 -6.53187 0.847063
rclavicle 1.01535e-014 -4.13472e-014
rhumerus -42.8289 13.5819 -84.6676
rradius 53.711
rwrist 5.841
rhand -23.2857 -47.1724
rfingers 7.12502
rthumb 3.1672 -77.1286
lclavicle 1.01535e-014 -4.13472e-014
lhumerus -44.9732 -14.5626 87.7171
lradius 58.2724
lwrist -4.03
lhand -29.8883 -41.9532
lfingers 7.12502
lthumb -3.20958 -11.9976
rfemur -96.4235 12.6437 23.3206
rtibia 137.195
rfoot -4.87859 -13.2045
rtoes -1.97619
lfemur -18.4743 0.928049 -21.99
ltibia 16.8249
lfoot 7.93565 4.67992
ltoes -14.6796
592
root 4.81869 18.3774 7.33615 13.765 -5.88855 -6.5947
lowerback -0.247398 -1.92786 4.59471
upperback -6.02138 -2.27696 3.59632
thorax -6.16296 -1.27258 1.2993
lowerneck -9.55387 -10.1687 -10.0994
upperneck 18.3462 -12.6977 1.96658
head 8.03926 -6.57871 0.952895
rclavicle 6.36546e-014 -8.94531e-015
rhumerus -42.7409 13.7572 -84.6041
rradius 54.1186
rwrist 5.91941
rhand -24.1264 -45.5034
rfingers 7.12502
rthumb 2.35533 -75.4701
lclavicle 6.36546e-014 -8.94531e-015
lhumerus -45.1097 -14.496 87.7336
lradius 58.56
lwrist -4.72348
lhand -29.7769 -42.2589
lfingers 7.12502
lthumb -3.10199 -12.3017
rfemur -96.8788 11.6691 22.907
rtibia 137.229
rfoot -5.26667 -12.6101
rtoes -0.189606
lfemur -19.749 1.80462 -22.2077
ltibia 19.9994
lfoot 4.55855 4.52565
ltoes -9.99664
